<svg width="1181" height="715" viewBox="0 0 1181 715" fill="none" xmlns="http://www.w3.org/2000/svg">
<g opacity="0.69">
<g opacity="0.43">
<path d="M1562.82 182.334C1118.62 172.451 965.345 31.259 932.704 -189C912.819 -188.998 886.762 -188.999 864.204 -189L841.876 -189C830.522 -111.345 870.259 124.448 1027.79 261.404C1185.32 398.36 1409.55 490.605 1562.82 518.373C1562.82 370.124 1562.83 264.228 1562.82 182.334Z" fill="url(#paint0_linear_9618_3364)"/>
<path d="M1308.17 718.782C809.51 513.318 736.312 26.3181 762.401 -189H841.876C830.523 -111.345 870.26 124.448 1027.79 261.404C1185.32 398.36 1409.55 490.605 1562.83 518.373C1473.42 587.557 1374.87 718.782 1308.17 718.782Z" fill="url(#paint1_linear_9618_3364)"/>
</g>
<g opacity="0.36">
<path d="M415.105 605.439C566.075 182.53 333.106 -31.0074 161.527 -105.532L278.742 -105.532C357.592 -95.8814 573.918 6.13379 668.029 182.53C762.14 358.927 759.245 475.662 748.416 605.439L415.105 605.439Z" fill="url(#paint2_linear_9618_3364)"/>
<path d="M978.742 608.095C934.747 156.374 651.967 -64.4507 405.578 -106.889C391.2 -106.89 309.506 -105.17 295.128 -106.888C647.392 10.0547 778.93 308.387 753.921 608.095C821.89 608.095 953.254 608.095 978.742 608.095Z" fill="url(#paint3_linear_9618_3364)"/>
</g>
</g>
<defs>
<linearGradient id="paint0_linear_9618_3364" x1="1188.16" y1="121.624" x2="996.943" y2="207.982" gradientUnits="userSpaceOnUse">
<stop stop-color="#D9D9D9"/>
<stop offset="1" stop-color="#D9D9D9" stop-opacity="0"/>
</linearGradient>
<linearGradient id="paint1_linear_9618_3364" x1="1052.63" y1="248.879" x2="877.766" y2="302.861" gradientUnits="userSpaceOnUse">
<stop stop-color="#D9D9D9"/>
<stop offset="1" stop-color="#D9D9D9" stop-opacity="0"/>
</linearGradient>
<linearGradient id="paint2_linear_9618_3364" x1="634.321" y1="97.6299" x2="490.215" y2="209" gradientUnits="userSpaceOnUse">
<stop stop-color="#D9D9D9"/>
<stop offset="1" stop-color="#D9D9D9" stop-opacity="0"/>
</linearGradient>
<linearGradient id="paint3_linear_9618_3364" x1="777.237" y1="33.8066" x2="605.565" y2="178.016" gradientUnits="userSpaceOnUse">
<stop stop-color="#D9D9D9"/>
<stop offset="1" stop-color="#D9D9D9" stop-opacity="0"/>
</linearGradient>
</defs>
</svg>
